<?xml version="1.0" encoding="utf-8"?>
<svg xmlns="http://www.w3.org/2000/svg">

    <symbol viewBox="0 0 26 26" fill="none" id="oracle-icon">
        <path d="M14.3685 6.35969C14.9878 6.55066 15.5355 6.97525 15.8613 7.58761C16.3607 8.5262 16.1984 9.64524 15.5456 10.4118L17.5838 13.7628C18.3224 13.5571 19.1055 13.712 19.718 14.1436L21.3759 12.7589L22.2482 13.8048L20.5746 15.2057C21.0798 16.394 20.6108 17.8069 19.4512 18.4238C18.2264 19.0755 16.6871 18.6014 16.0355 17.3767C15.5191 16.4062 15.7152 15.2464 16.4247 14.4795L14.411 11.1687C13.8223 11.3592 13.1999 11.316 12.6498 11.0845L9.55375 14.8206C9.61203 14.9038 9.67444 14.9824 9.72328 15.0741C10.3749 16.2988 9.90353 17.8431 8.67876 18.4947C7.454 19.1464 5.9147 18.6722 5.26305 17.4475C4.89557 16.7569 4.89542 15.9712 5.17537 15.2966L3.03717 13.5057L3.91129 12.4651L6.01753 14.2274C6.11067 14.1599 6.2013 14.0889 6.3057 14.0333C7.00958 13.6588 7.81386 13.6642 8.49809 13.9603L11.584 10.2351C11.5203 10.1461 11.4537 10.0604 11.401 9.96116C10.7494 8.73644 11.2208 7.19218 12.4456 6.54053C13.0579 6.21467 13.749 6.16957 14.3685 6.35969Z" fill="#00D7D7"/>
        <circle cx="13" cy="13" r="12.35" stroke="#00D7D7" stroke-width="1.3"/>
    </symbol>
    <symbol viewBox="0 0 18 18" fill="none" id="active">
        <circle cx="9" cy="9" r="6.5" stroke="#76FCB3"/>
        <circle opacity="0.5" cx="9" cy="9" r="8.75" stroke="#76FCB3" stroke-width="0.5"/>
        <circle cx="9" cy="9" r="4" fill="#76FCB3"/>
    </symbol>
    <symbol viewBox="0 0 18 18" fill="none" id="terminated">
        <circle cx="9" cy="9" r="6.5" stroke="#FF007A"/>
        <circle opacity="0.5" cx="9" cy="9" r="8.75" stroke="#FF007A" stroke-width="0.5"/>
        <circle cx="9" cy="9" r="4" fill="#FF007A"/>
    </symbol>
    <symbol viewBox="0 0 18 18" fill="none" id="pending">
        <circle cx="9" cy="9" r="6.5" stroke="#FFE500"/>
        <circle opacity="0.5" cx="9" cy="9" r="8.75" stroke="#FFE500" stroke-width="0.5"/>
        <circle cx="9" cy="9" r="4" fill="#FFE500"/>
    </symbol>
    <symbol width="31" height="27" viewBox="0 0 31 27" fill="none" id="coin-symbol">
        <path d="M5.36967 22.6802C3.97539 22.5656 2.83896 22.3555 1.96037 22.0499C1.10089 21.7252 0.461051 21.4578 0.0408584 21.2477L1.27279 17.953C1.94128 18.2777 2.73391 18.5738 3.6507 18.8411C4.58658 19.1085 5.57021 19.2422 6.60159 19.2422C7.76667 19.2422 8.55931 19.0894 8.9795 18.7838C9.41879 18.4592 9.63844 18.0103 9.63844 17.4373C9.63844 17.0744 9.55249 16.7688 9.3806 16.5205C9.2087 16.2531 8.9604 16.0144 8.63571 15.8043C8.31101 15.5942 7.90037 15.3937 7.40378 15.2027C6.90719 14.9926 6.3342 14.7729 5.68481 14.5437C5.05452 14.3145 4.43378 14.0662 3.82259 13.7988C3.2305 13.5123 2.68616 13.1685 2.18957 12.7675C1.71208 12.3664 1.32054 11.8793 1.01494 11.3063C0.728446 10.7142 0.585199 10.0076 0.585199 9.18627C0.585199 8.55598 0.671147 7.95434 0.843044 7.38135C1.03404 6.78926 1.32054 6.25447 1.70253 5.77698C2.08452 5.29948 2.58111 4.89839 3.1923 4.5737C3.80349 4.2299 4.52928 3.98161 5.36967 3.82881V0.734664H8.9795V3.71421C9.97268 3.80971 10.8226 3.95296 11.5293 4.14395C12.2551 4.33495 12.8281 4.52595 13.2483 4.71694L12.3601 8.15488C11.7299 7.88749 10.9945 7.65829 10.1541 7.4673C9.33285 7.2763 8.46381 7.1808 7.54703 7.1808C6.63024 7.1808 5.9713 7.3336 5.57021 7.63919C5.16912 7.94479 4.96857 8.34588 4.96857 8.84247C4.96857 9.14807 5.02587 9.41546 5.14047 9.64466C5.27417 9.85475 5.47471 10.0458 5.74211 10.2176C6.0095 10.3895 6.3342 10.5614 6.71619 10.7333C7.11728 10.8861 7.59478 11.058 8.14867 11.249C8.98905 11.5546 9.76259 11.8889 10.4693 12.2518C11.1951 12.6147 11.8158 13.0348 12.3315 13.5123C12.8663 13.9707 13.2769 14.5151 13.5634 15.1454C13.869 15.7757 14.0218 16.511 14.0218 17.3514C14.0218 17.9244 13.9359 18.4974 13.764 19.0703C13.5921 19.6242 13.3056 20.1399 12.9045 20.6174C12.5034 21.0949 11.9782 21.5056 11.3288 21.8493C10.6985 22.1931 9.91539 22.4414 8.9795 22.5942V26.0895H5.36967V22.6802ZM21.6529 22.6802C20.2586 22.5656 19.1222 22.3555 18.2436 22.0499C17.3841 21.7252 16.7443 21.4578 16.3241 21.2477L17.556 17.953C18.2245 18.2777 19.0171 18.5738 19.9339 18.8411C20.8698 19.1085 21.8534 19.2422 22.8848 19.2422C24.0499 19.2422 24.8425 19.0894 25.2627 18.7838C25.702 18.4592 25.9217 18.0103 25.9217 17.4373C25.9217 17.0744 25.8357 16.7688 25.6638 16.5205C25.4919 16.2531 25.2436 16.0144 24.9189 15.8043C24.5942 15.5942 24.1836 15.3937 23.687 15.2027C23.1904 14.9926 22.6174 14.7729 21.968 14.5437C21.3377 14.3145 20.717 14.0662 20.1058 13.7988C19.5137 13.5123 18.9694 13.1685 18.4728 12.7675C17.9953 12.3664 17.6037 11.8793 17.2982 11.3063C17.0117 10.7142 16.8684 10.0076 16.8684 9.18627C16.8684 8.55598 16.9544 7.95434 17.1263 7.38135C17.3173 6.78926 17.6037 6.25447 17.9857 5.77698C18.3677 5.29948 18.8643 4.89839 19.4755 4.5737C20.0867 4.2299 20.8125 3.98161 21.6529 3.82881V0.734664H25.2627V3.71421C26.2559 3.80971 27.1058 3.95296 27.8125 4.14395C28.5383 4.33495 29.1113 4.52595 29.5315 4.71694L28.6434 8.15488C28.0131 7.88749 27.2777 7.65829 26.4373 7.4673C25.6161 7.2763 24.747 7.1808 23.8302 7.1808C22.9135 7.1808 22.2545 7.3336 21.8534 7.63919C21.4523 7.94479 21.2518 8.34588 21.2518 8.84247C21.2518 9.14807 21.3091 9.41546 21.4237 9.64466C21.5574 9.85475 21.7579 10.0458 22.0253 10.2176C22.2927 10.3895 22.6174 10.5614 22.9994 10.7333C23.4005 10.8861 23.878 11.058 24.4319 11.249C25.2723 11.5546 26.0458 11.8889 26.7525 12.2518C27.4783 12.6147 28.099 13.0348 28.6147 13.5123C29.1495 13.9707 29.5601 14.5151 29.8466 15.1454C30.1522 15.7757 30.305 16.511 30.305 17.3514C30.305 17.9244 30.2191 18.4974 30.0472 19.0703C29.8753 19.6242 29.5888 20.1399 29.1877 20.6174C28.7866 21.0949 28.2614 21.5056 27.612 21.8493C26.9817 22.1931 26.1986 22.4414 25.2627 22.5942V26.0895H21.6529V22.6802Z" fill="black"/>
    </symbol>
    <symbol width="70" height="70" viewBox="0 0 70 70" fill="none" id="coin-symbol-wrapper">
        <g clip-path="url(#clip0_312_5117)">
        <path opacity="0.8" d="M35 70.0002C54.33 70.0002 70 54.3302 70 35.0002C70 15.6702 54.33 0.000198364 35 0.000198364C15.67 0.000198364 0 15.6702 0 35.0002C0 54.3302 15.67 70.0002 35 70.0002Z" fill="url(#paint0_linear_312_5117)"/>
        <path d="M34.9999 64.2466C51.1522 64.2466 64.2463 51.1525 64.2463 35.0002C64.2463 18.8479 51.1522 5.7538 34.9999 5.7538C18.8476 5.7538 5.75349 18.8479 5.75349 35.0002C5.75349 51.1525 18.8476 64.2466 34.9999 64.2466Z" fill="white" stroke="black" stroke-width="2.57111"/>
        <path d="M35.3208 59.1039C48.8106 59.1039 59.7463 48.1682 59.7463 34.6784C59.7463 21.1886 48.8106 10.2529 35.3208 10.2529C21.831 10.2529 10.8953 21.1886 10.8953 34.6784C10.8953 48.1682 21.831 59.1039 35.3208 59.1039Z" stroke="black" stroke-width="1.92833" stroke-linecap="round" stroke-linejoin="round" stroke-dasharray="0.02 2.92"/>
        </g>
        <defs>
        <linearGradient id="paint0_linear_312_5117" x1="70" y1="64.7562" x2="-6.31952" y2="53.8077" gradientUnits="userSpaceOnUse">
        <stop stop-color="#FF2A6D"/>
        <stop offset="0.516647" stop-color="#A07EFF"/>
        <stop offset="1" stop-color="#3DFFFF"/>
        </linearGradient>
        <clipPath id="clip0_312_5117">
        <rect width="70" height="70" fill="white"/>
        </clipPath>
        </defs>
    </symbol>
    <symbol viewBox="0 0 24 24" id="eth">
        <path d="M12.036 0.130042V0.141865C12.0478 0.200978 12.0478 0.271914 12.0478 0.34285V8.86699C12.036 8.91428 12.0005 8.9261 11.965 8.94975C11.7168 9.06797 11.4803 9.17438 11.232 9.28078C10.8892 9.43448 10.5345 9.59999 10.1916 9.75369L8.95026 10.3212C8.6074 10.4749 8.26455 10.6286 7.93351 10.7823C7.53154 10.9714 7.11775 11.1488 6.71578 11.3379C6.37292 11.4916 6.03006 11.6571 5.67538 11.8108C5.39164 11.9409 5.1079 12.0591 4.83598 12.1892C4.81233 12.201 4.78868 12.2128 4.76504 12.2128C4.75322 12.2128 4.75322 12.2128 4.74139 12.201L5.06061 11.669C5.67538 10.6522 6.27834 9.64728 6.89312 8.63054C7.54336 7.54285 8.20543 6.45517 8.85568 5.36748C9.45864 4.36255 10.0734 3.35763 10.6764 2.3527C11.1138 1.6197 11.5631 0.886692 12.0005 0.153687C12.0123 0.130042 12.0242 0.118219 12.0242 0.094574H12.036C12.0242 0.106397 12.036 0.118219 12.036 0.130042Z" fill="#8A92B2"/>
        <path d="M19.2946 12.201L19.3064 12.2128L17.5685 13.2414L12.1064 16.469C12.0827 16.4808 12.0591 16.4926 12.0473 16.5044C12.0118 16.5044 12.0118 16.469 12.0118 16.4571V16.3507V9.04432C12.0118 9.00885 12.0118 8.96156 12.0236 8.9261C12.0355 8.87881 12.0709 8.89063 12.1064 8.90245C12.2601 8.97339 12.4256 9.04432 12.5793 9.11526C13.0404 9.32807 13.5015 9.54087 13.9625 9.74186C14.3645 9.9192 14.7547 10.1084 15.1566 10.2857C15.5586 10.463 15.9606 10.6522 16.3625 10.8295C16.7054 10.9832 17.0601 11.1488 17.4029 11.3025C17.7458 11.4561 18.1005 11.6217 18.4433 11.7754C18.7153 11.8936 18.9872 12.0236 19.2591 12.1419C19.2591 12.1773 19.2709 12.1891 19.2946 12.201Z" fill="#454A75"/>
        <path d="M12.0355 23.8463C12.0355 23.8581 12.0236 23.8699 12.0236 23.8818H12.0118C12.0118 23.8581 11.9882 23.8463 11.9763 23.8226C11.2433 22.7941 10.5103 21.7537 9.77733 20.7251C9.0325 19.6729 8.27585 18.6089 7.53102 17.5566C6.80984 16.5399 6.07684 15.5113 5.35565 14.4946C5.16649 14.2226 4.97733 13.9625 4.78817 13.6906C4.77634 13.667 4.76452 13.6552 4.74088 13.6197C4.77634 13.6197 4.79999 13.6433 4.81181 13.6552C5.84038 14.2581 6.85713 14.8611 7.8857 15.464C9.06797 16.1616 10.2384 16.8591 11.4207 17.5566L12.0236 17.9113C12.0473 17.935 12.0473 17.9586 12.0473 17.9823V23.6808C12.0473 23.7399 12.0473 23.799 12.0355 23.8463Z" fill="#8A92B2"/>
        <path d="M4.72906 12.2246V12.2128C5.10739 12.0473 5.47389 11.8699 5.85222 11.7044C6.33695 11.4798 6.82168 11.267 7.3064 11.0423C7.67291 10.8768 8.05123 10.6995 8.41773 10.534C8.96158 10.2857 9.4936 10.0492 10.0374 9.80097C10.4039 9.63545 10.7704 9.46994 11.1488 9.2926C11.4089 9.17437 11.6808 9.05614 11.9409 8.93792C11.9645 8.92609 12 8.91427 12.0118 8.89062C12.0236 8.89062 12.0236 8.90245 12.0118 8.91427V16.4217C12.0118 16.4571 12 16.4926 12.0236 16.5162C12 16.5517 11.9764 16.5162 11.9645 16.5044C11.8581 16.4453 11.7517 16.3862 11.6453 16.3153C9.36355 14.9675 7.06995 13.6079 4.78818 12.2601C4.77636 12.2483 4.75271 12.2364 4.72906 12.2246Z" fill="#62688F"/>
        <path d="M19.2709 13.6197H19.2828C19.2828 13.6433 19.2591 13.667 19.2473 13.6906C17.0719 16.7527 14.8966 19.8266 12.7212 22.8887C12.4966 23.2079 12.2601 23.5271 12.0355 23.8463C12.0237 23.8345 12.0237 23.8226 12.0237 23.8108V23.7399V18.0059V17.8995C12.5202 17.6039 13.0049 17.3202 13.5015 17.0246C15.4168 15.8896 17.332 14.7665 19.2355 13.6315C19.2473 13.6433 19.2591 13.6315 19.2709 13.6197Z" fill="#62688F"/>
        <path d="M12.0236 8.91429V8.89065V8.81971V0.236458C12.0236 0.20099 12.0118 0.177344 12.0355 0.141876C14.4355 4.12611 16.8355 8.09853 19.2236 12.0828C19.2473 12.1182 19.2828 12.1655 19.2946 12.2128C19.1291 12.1537 18.9754 12.0709 18.8217 12C18.6325 11.9172 18.4315 11.8227 18.2424 11.7399C18.1241 11.6808 17.9941 11.6335 17.8759 11.5744C17.6749 11.4798 17.4739 11.397 17.2729 11.3025C17.1547 11.2552 17.0365 11.1961 16.9182 11.137L16.1379 10.7823C16.0079 10.7232 15.8778 10.664 15.736 10.6049L15.1685 10.3567C15.0502 10.3094 14.932 10.2503 14.8138 10.1911L14.0335 9.83646C13.9034 9.77734 13.7734 9.71823 13.6315 9.65912L13.064 9.41084C12.934 9.35173 12.8158 9.29262 12.6857 9.2335C12.4611 9.1271 12.2365 9.02069 12 8.92611C12.0355 8.91429 12.0236 8.91429 12.0236 8.91429Z" fill="#62688F"/>
    </symbol>
    

</svg>